<svg width="32" height="32" viewBox="0 0 32 32" fill="none" xmlns="http://www.w3.org/2000/svg">
<path d="M4 9.33331H7.38109C10.2484 9.33331 11.682 9.33331 12.7449 10.1241C13.8078 10.915 14.2198 12.2882 15.0437 15.0345L15.623 16.9654C16.4469 19.7118 16.8588 21.085 17.9217 21.8758C18.9846 22.6666 20.4183 22.6666 23.2856 22.6666H28M28 22.6666L24 18.6666M28 22.6666L24 26.6666" stroke="#10132C" stroke-width="2"/>
<path fill-rule="evenodd" clip-rule="evenodd" d="M28.7071 8.62622L24.7071 4.62622L23.2929 6.04043L25.5858 8.33333H23.2856L23.2253 8.33333C21.8429 8.33331 20.7191 8.33329 19.8114 8.43888C18.8646 8.54903 18.0487 8.78329 17.3248 9.32186C16.843 9.68036 16.4786 10.1167 16.1774 10.6265C16.2124 10.7027 16.2464 10.7791 16.2794 10.8557C16.5937 11.5842 16.8753 12.4564 17.1677 13.4175C17.3176 12.961 17.4572 12.5753 17.6009 12.2421C17.901 11.5465 18.1796 11.1787 18.5187 10.9264C18.8577 10.6742 19.29 10.513 20.0426 10.4255C20.8212 10.3349 21.8284 10.3333 23.2856 10.3333H25.5858L23.2929 12.6262L24.7071 14.0404L28.7071 10.0404L29.4142 9.33333L28.7071 8.62622ZM14.4893 21.3735C14.4543 21.2973 14.4203 21.2209 14.3872 21.1442C14.0729 20.4157 13.7914 19.5436 13.499 18.5824C13.349 19.039 13.2095 19.4246 13.0657 19.7579C12.7656 20.4535 12.487 20.8213 12.148 21.0735C11.809 21.3258 11.3767 21.487 10.6241 21.5745C9.8455 21.6651 8.83829 21.6667 7.38109 21.6667H4V23.6667H7.38109H7.44131C8.82378 23.6667 9.94759 23.6667 10.8552 23.5611C11.802 23.451 12.618 23.2167 13.3419 22.6781C13.8237 22.3196 14.1881 21.8833 14.4893 21.3735Z" fill="#10132C"/>
</svg>
