<svg width="18" height="18" viewBox="0 0 18 18" fill="none" xmlns="http://www.w3.org/2000/svg">
<path d="M16.7723 16.7723C16.4687 17.0759 15.9708 17.0759 15.6611 16.7723L9 10.1112L2.3389 16.7723C2.03529 17.0759 1.53738 17.0759 1.2277 16.7723C0.924099 16.4687 0.924099 15.9708 1.2277 15.6611L7.8888 9L1.2277 2.3389C0.924099 2.03529 0.924099 1.53738 1.2277 1.2277C1.53131 0.924099 2.02922 0.924099 2.3389 1.2277L9 7.8888L15.6611 1.2277C15.9647 0.924099 16.4626 0.924099 16.7723 1.2277C17.0759 1.53131 17.0759 2.02922 16.7723 2.3389L10.1112 9L16.7723 15.6611C17.0759 15.9708 17.0759 16.4687 16.7723 16.7723Z" fill="#10132C" stroke="#10132C" stroke-width="0.7"/>
</svg>
