<svg width="178" height="25" viewBox="0 0 178 25" fill="none" xmlns="http://www.w3.org/2000/svg">
<path d="M170.771 13.9209L170.773 13.9203L170.412 16.6068C170.404 16.6571 170.351 16.7406 170.233 16.7723C170.119 16.803 170.033 16.7617 169.998 16.7233L169.997 16.7214L167.881 13.9781L167.881 13.9774C167.01 12.8518 165.692 12.108 164.209 11.8809L164.207 11.8806L161.668 11.5011C161.572 11.4849 161.536 11.4303 161.528 11.4001C161.52 11.37 161.524 11.3039 161.601 11.2414L161.617 11.2284L163.608 9.64442L163.609 9.64337C164.78 8.70566 165.55 7.40251 165.741 5.99202L165.842 5.24718L165.841 5.24764L166.197 2.59323C166.218 2.53431 166.281 2.46264 166.391 2.43327C166.499 2.40422 166.589 2.43402 166.638 2.4739L168.732 5.18982L168.732 5.19052C169.539 6.23315 170.73 6.94819 172.079 7.22819L172.082 7.23883L172.406 7.2873L174.624 7.61892L174.627 7.62962L174.962 7.67085C175.06 7.68299 175.095 7.73772 175.103 7.76469C175.11 7.7916 175.107 7.85677 175.027 7.91697L175.027 7.91685L175.017 7.92457L173.006 9.52496L173.004 9.52604C171.834 10.4635 171.064 11.7657 170.872 13.1757L170.771 13.9209Z" fill="#909AF2" stroke="#909AF2"/>
<path d="M5.96752 22.0577L5.9694 22.0572L5.86012 22.872L4.89988 21.6269L4.89934 21.6262C4.39713 20.9773 3.64193 20.5539 2.80036 20.425L2.7986 20.4248L1.80841 20.2768L2.59193 19.6535L2.59193 19.6535L2.59324 19.6524C3.25774 19.1202 3.70009 18.3759 3.81058 17.5628L3.9118 16.818L3.91024 16.8184L4.01952 16.0035L4.97976 17.2487L4.9803 17.2494C5.41644 17.8129 6.0434 18.2064 6.75204 18.3844L6.75684 18.4023L7.08103 18.4508L8.0722 18.599L7.28791 19.2229L7.28656 19.2239C6.62241 19.756 6.17989 20.4997 6.06909 21.3125L5.96752 22.0577Z" fill="#FC8955" stroke="#FC8955"/>
</svg>
